<?xml version="1.0" encoding="utf-8"?>
<!-- Generator: Adobe Illustrator 22.0.1, SVG Export Plug-In . SVG Version: 6.00 Build 0)  -->
<svg version="1.1" id="Layer_1" xmlns="http://www.w3.org/2000/svg" xmlns:xlink="http://www.w3.org/1999/xlink" x="0px" y="0px"
	 viewBox="0 0 338.3 134.4" style="enable-background:new 0 0 338.3 134.4;" xml:space="preserve">
<style type="text/css">
	.st0{fill:#FFFFFF;}
</style>
<g>
	<path d="M300.9,97.8c-4.4,10.2-9.9,15.2-18.6,18.7c-5.8,6.3-14.7,7.2-31.6,11.2c-23.3,5.4-34-6.5-32.2-15.7
		c2.6-13.6,23.5-53.8,33.5-72.1c0,0,1.5-0.7,4.1-1.8c2.3-4.5,4.4-8.6,6.2-12c0,0,14.9-7.5,36.3-6.7c-5.4,7.2-10.5,16.1-15.5,25.1
		c-5,9-20.8,40.3-21.7,46.9c-0.2,2.2,5.8-0.1,6.7-0.4c9.1-19.3,19.9-39.5,23.8-47.2c0,0,1.3-0.5,3.9-1.1c2.8-5.4,5.1-9.8,6.6-12.9
		c0,0,11.9-3.5,35.8-7.3C326.4,43.4,310.5,76,300.9,97.8z M305,32.9c-4.6,9.3-17.8,33.8-27.3,54.8c-2.6,5.6-9.7,8-17.1,8.6
		c-2.1,0.1-3.3-1.8-2.8-5.3c0.4-2.6,17.2-39.2,22.2-48.1c4.1-7.7,8.6-15.5,11.7-20.1C278.4,23,267.2,28,265.1,29
		c-10.1,18.5-30.6,61.7-33.1,75.1c-1.6,7.9,7.7,19.6,30.7,14.2c20.8-4.9,28.6-7.5,35-21.9c9.1-21,24.2-51.9,33.7-69
		C316.6,29.8,307.2,32.3,305,32.9z"/>
	<path class="st0" d="M305,32.9c-4.6,9.3-17.8,33.8-27.3,54.8c-2.6,5.6-9.7,8-17.1,8.6c-2.1,0.1-3.3-1.8-2.8-5.3
		c0.4-2.6,17.2-39.2,22.2-48.1c4.1-7.7,8.6-15.5,11.7-20.1C278.4,23,267.2,28,265.1,29c-10.1,18.5-30.6,61.7-33.1,75.1
		c-1.6,7.9,7.7,19.6,30.7,14.2c20.8-4.9,28.6-7.5,35-21.9c9.1-21,24.2-51.9,33.7-69C316.6,29.8,307.2,32.3,305,32.9z"/>
</g>
<g>
	<path d="M267.4,36.6L257,38.6l-4.2,8.5l-20,3.8c-0.4,0.6-0.8,1.4-1.1,2.2l25.3-2.2l-10.3,23.4l-10.7,1.8l-3.8,8.7l-14.9,2.6
		c-0.4,0.8-0.8,1.7-1.1,2.6l23.7-2.4l-9.2,24.9c0,0-4,1-11.7,2.6l-2.9,8c0,0-18.5,4.7-52.4,9.1c0,0,14.7-40.6,42.6-99.3
		c0,0,1.5-0.5,4.3-1c2.2-4.6,4.3-9.2,6.6-13.9c0,0,22.1-5.9,63.9-8.8L267.4,36.6z M219.6,21c-24.2,50.8-38.4,87.9-41.6,96.7
		c29-3.8,46.1-7.8,49.5-8.5l6.4-17.2l-23.5,2.4c4.6-14.2,9.3-19,9.7-19.5l23.7-4l6.9-15.6l-25.3,2.2c3.6-8.8,10-18.6,10-18.6
		l29.2-5.6l9.8-19.9C242.5,15.6,223.1,20.1,219.6,21z"/>
	<path class="st0" d="M219.6,21c-24.2,50.8-38.4,87.9-41.6,96.7c29-3.8,46.1-7.8,49.5-8.5l6.4-17.2l-23.5,2.4
		c4.6-14.2,9.3-19,9.7-19.5l23.7-4l6.9-15.6l-25.3,2.2c3.6-8.8,10-18.6,10-18.6l29.2-5.6l9.8-19.9C242.5,15.6,223.1,20.1,219.6,21z"
		/>
</g>
<g>
	<path d="M223.2,30.3l-11.3,2.1l-4.6,9.3l-21.9,4.2c-0.4,0.7-0.8,1.5-1.3,2.4l27.6-2.4l-11.3,25.5l-11.7,2l-4.2,9.5l-16.3,2.8
		c-0.4,0.8-0.8,1.8-1.3,2.8l25.9-2.6l-10,27.2c0,0-4.3,1.1-12.8,2.8l-3.2,8.8c0,0-20.2,5.2-57.3,9.9c0,0,16-44.3,46.6-108.5
		c0,0,1.7-0.6,4.7-1.1c2.4-5,4.7-10,7.3-15.2c0,0,24.1-6.4,69.9-9.6L223.2,30.3z M171,13.1c-26.5,55.5-42,96.1-45.5,105.7
		c31.7-4.2,50.3-8.5,54.1-9.3l7-18.8L161,93.3c5-15.5,10.2-20.8,10.6-21.3l25.9-4.3l7.5-17L177.4,53c3.9-9.6,10.9-20.4,10.9-20.4
		l31.9-6.1L231,4.7C196,7.3,174.8,12.1,171,13.1z"/>
	<path class="st0" d="M171,13.1c-26.5,55.5-42,96.1-45.5,105.7c31.7-4.2,50.3-8.5,54.1-9.3l7-18.8L161,93.3
		c5-15.5,10.2-20.8,10.6-21.3l25.9-4.3l7.5-17L177.4,53c3.9-9.6,10.9-20.4,10.9-20.4l31.9-6.1L231,4.7C196,7.3,174.8,12.1,171,13.1z
		"/>
</g>
<g>
	<path d="M164.4,46.1l-9.4,1.7l-3.8,7.8l-18.2,3.5c-0.3,0.6-0.7,1.3-1,2l23-2l-9.4,21.2l-9.7,1.6l-3.5,7.9l-13.6,2.3
		c-0.3,0.7-0.7,1.5-1,2.3l21.6-2.2l-8.3,22.6c0,0-3.6,0.9-10.7,2.3l-2.7,7.3c0,0-16.8,4.3-47.7,8.2c0,0,13.3-36.9,38.7-90.2
		c0,0,1.4-0.5,3.9-0.9c2-4.2,3.9-8.3,6-12.6c0,0,20.1-5.3,58.1-8L164.4,46.1z M121,31.9C99,78,86.1,111.8,83.2,119.8
		c26.3-3.5,41.9-7.1,45-7.8l5.8-15.7l-21.3,2.2c4.2-12.9,8.5-17.3,8.8-17.7l21.6-3.6l6.3-14.1l-23,2c3.2-8,9-16.9,9-16.9l26.6-5.1
		l8.9-18.1C141.8,27,124.1,31.1,121,31.9z"/>
	<path class="st0" d="M121,31.9C99,78,86.1,111.8,83.2,119.8c26.3-3.5,41.9-7.1,45-7.8l5.8-15.7l-21.3,2.2
		c4.2-12.9,8.5-17.3,8.8-17.7l21.6-3.6l6.3-14.1l-23,2c3.2-8,9-16.9,9-16.9l26.6-5.1l8.9-18.1C141.8,27,124.1,31.1,121,31.9z"/>
</g>
<g>
	<path d="M81.2,117.5l-10.8,2.7c-1.9,4.6-3.2,7.4-3.2,7.4L41.9,134c0.4-10.9,0.4-20.5,0.4-28.1c-1.5,3.4-2.3,5.7-2.5,6.2l-10.7,2.3
		c-1.9,4.6-3.2,7.8-3.2,7.8L0,127.6c17.7-48.2,37.9-81.3,37.9-81.3c1-0.5,2.1-0.8,3.2-1.1c4.6-8.5,7.4-13.1,7.4-13.1
		c9.1-3.4,21.2-5.5,30.7-5.9c-0.2,5.5-0.6,10.4-0.8,15c3.4-6.8,3.9-5.9,3.9-5.9c1-0.2,2.1-0.5,3.2-0.8c2.5-5.5,4.5-10.5,6.1-13.1
		c12-2.7,24.2-4.5,36.5-5.1C110.5,47.7,81.2,117.5,81.2,117.5z M93.2,24.7c0,0,0.1-3-20.1,50.4c0,0,1-23.8,2.2-45.1
		c-6.4,0.5-17,2.3-24.4,5.1c-2.2,3.6-20.5,34.7-36.8,78.6l23-4.8c1.5-3.5,9-22.1,18.1-36c0,0,0.8,22.4,0.2,47.4l23.1-5.9
		c2.7-6.4,28.2-66.9,42.9-94.2C114.4,20.7,102.4,22,93.2,24.7z"/>
	<path class="st0" d="M93.2,24.7c0,0,0.1-3-20.1,50.4c0,0,1-23.8,2.2-45.1c-6.4,0.5-17,2.3-24.4,5.1c-2.2,3.6-20.5,34.7-36.8,78.6
		l23-4.8c1.5-3.5,9-22.1,18.1-36c0,0,0.8,22.4,0.2,47.4l23.1-5.9c2.7-6.4,28.2-66.9,42.9-94.2C114.4,20.7,102.4,22,93.2,24.7z"/>
</g>
</svg>
